<svg width="20" height="20" viewBox="0 0 20 20" fill="none" xmlns="http://www.w3.org/2000/svg">
<path d="M9 19.2664C8.53846 19.4466 7.90909 19.6139 7.11189 19.7683C6.31468 19.9228 5.47552 20 4.59441 20C2.95804 20 1.78322 19.7812 1.06993 19.3436C0.356644 18.8803 0 18.2883 0 17.5676V0.733591C0.461538 0.55341 1.09091 0.386099 1.88811 0.23166C2.68532 0.0772201 3.52448 0 4.40559 0C6.04196 0 7.21678 0.231661 7.93007 0.694981C8.64336 1.13256 9 1.71171 9 2.43243V19.2664Z" fill="white"/>
<path d="M20 8.66989C19.5385 8.75097 18.9091 8.82626 18.1119 8.89575C17.3147 8.96525 16.4755 9 15.5944 9C13.958 9 12.7832 8.90154 12.0699 8.70463C11.3566 8.49614 11 8.22973 11 7.90541V0.330117C11.4615 0.249035 12.0909 0.173746 12.8881 0.104248C13.6853 0.0347498 14.5245 7.15256e-07 15.4056 7.15256e-07C17.042 7.15256e-07 18.2168 0.104248 18.9301 0.312742C19.6434 0.509653 20 0.77027 20 1.0946V8.66989Z" fill="white"/>
<path d="M20 19.6699C19.5385 19.751 18.9091 19.8263 18.1119 19.8958C17.3147 19.9653 16.4755 20 15.5944 20C13.958 20 12.7832 19.9015 12.0699 19.7046C11.3566 19.4961 11 19.2297 11 18.9054V11.3301C11.4615 11.249 12.0909 11.1737 12.8881 11.1042C13.6853 11.0347 14.5245 11 15.4056 11C17.042 11 18.2168 11.1042 18.9301 11.3127C19.6434 11.5097 20 11.7703 20 12.0946V19.6699Z" fill="white"/>
</svg>
