<svg width="101" height="20" viewBox="0 0 101 20" fill="none" xmlns="http://www.w3.org/2000/svg">
<path d="M9 19.2664C8.53846 19.4466 7.90909 19.6139 7.11189 19.7683C6.31468 19.9228 5.47552 20 4.59441 20C2.95804 20 1.78322 19.7812 1.06993 19.3436C0.356644 18.8803 0 18.2883 0 17.5676V0.733591C0.461538 0.55341 1.09091 0.386099 1.88811 0.23166C2.68532 0.0772201 3.52448 0 4.40559 0C6.04196 0 7.21678 0.231661 7.93007 0.694981C8.64336 1.13256 9 1.71171 9 2.43243V19.2664Z" fill="#6648C3"/>
<path d="M20 8.66989C19.5385 8.75097 18.9091 8.82626 18.1119 8.89575C17.3147 8.96525 16.4755 9 15.5944 9C13.958 9 12.7832 8.90154 12.0699 8.70463C11.3566 8.49614 11 8.22973 11 7.90541V0.330117C11.4615 0.249035 12.0909 0.173746 12.8881 0.104248C13.6853 0.0347498 14.5245 7.15256e-07 15.4056 7.15256e-07C17.042 7.15256e-07 18.2168 0.104248 18.9301 0.312742C19.6434 0.509653 20 0.77027 20 1.0946V8.66989Z" fill="#6648C3"/>
<path d="M20 19.6699C19.5385 19.751 18.9091 19.8263 18.1119 19.8958C17.3147 19.9653 16.4755 20 15.5944 20C13.958 20 12.7832 19.9015 12.0699 19.7046C11.3566 19.4961 11 19.2297 11 18.9054V11.3301C11.4615 11.249 12.0909 11.1737 12.8881 11.1042C13.6853 11.0347 14.5245 11 15.4056 11C17.042 11 18.2168 11.1042 18.9301 11.3127C19.6434 11.5097 20 11.7703 20 12.0946V19.6699Z" fill="#6648C3"/>
<path d="M91.8434 13.9167C91.2556 14.6677 90.0501 14.248 90.0559 13.2943L90.0738 10.3615C90.0753 10.1082 90.2811 9.90366 90.5344 9.90366C90.6825 9.90366 90.8215 9.8325 90.9081 9.7124L94.0547 5.34776C94.2427 5.08705 94.5445 4.93256 94.8659 4.93256H98.2851C99.1168 4.93256 99.585 5.88868 99.0751 6.54569L94.6158 12.2914C94.4263 12.5354 94.1347 12.6782 93.8258 12.6782H93.2998C92.9923 12.6782 92.7019 12.8197 92.5123 13.0619L91.8434 13.9167ZM86.2596 19.7302C85.7073 19.7302 85.2596 19.2825 85.2596 18.7302V1C85.2596 0.447717 85.7073 0 86.2596 0H89.5775C90.1298 0 90.5775 0.447715 90.5775 1V18.7302C90.5775 19.2825 90.1298 19.7302 89.5775 19.7302H86.2596ZM94.9691 19.7302C94.6123 19.7302 94.2825 19.5401 94.1037 19.2313L91.3697 14.5089C91.1506 14.1305 91.2028 13.6536 91.4986 13.3315L93.5806 11.0644C94.0276 10.5776 94.8156 10.6507 95.1655 11.2115L99.5269 18.2009C99.9425 18.8669 99.4636 19.7302 98.6785 19.7302H94.9691Z" fill="white"/>
<path d="M75.9364 20C74.3308 20 72.9563 19.6821 71.8131 19.0462C70.6699 18.404 69.7932 17.5112 69.183 16.368C68.5729 15.2184 68.2678 13.8857 68.2678 12.3699C68.2678 10.8542 68.5729 9.52472 69.183 8.3815C69.7932 7.23185 70.6699 6.33911 71.8131 5.70327C72.9563 5.06101 74.3308 4.73988 75.9364 4.73988C77.3879 4.73988 78.6435 5.00321 79.7033 5.52986C80.7694 6.05009 81.5947 6.78869 82.1792 7.74566C82.6061 8.44005 82.8789 9.22356 82.9973 10.0962C83.0719 10.6454 82.6147 11.0983 82.0605 11.0983H79.0462C78.529 11.0983 78.1189 10.6954 77.9579 10.2039C77.842 9.85005 77.6755 9.5573 77.4586 9.32562C77.0861 8.91458 76.6044 8.70905 76.0135 8.70905C75.5511 8.70905 75.1464 8.84393 74.7996 9.11368C74.4528 9.377 74.183 9.77842 73.9904 10.3179C73.7977 10.851 73.7013 11.5222 73.7013 12.3314C73.7013 13.1407 73.7977 13.815 73.9904 14.3545C74.183 14.8876 74.4528 15.289 74.7996 15.5588C75.1464 15.8221 75.5511 15.9538 76.0135 15.9538C76.4053 15.9538 76.7521 15.8638 77.0539 15.684C77.3558 15.4978 77.5999 15.228 77.7861 14.8748C77.8528 14.7502 77.9103 14.6164 77.9586 14.4734C78.1258 13.9775 78.5375 13.5645 79.0608 13.5645H82.0506C82.6087 13.5645 83.0668 14.0233 82.9899 14.5761C82.8662 15.4652 82.5928 16.2648 82.1696 16.9749C81.5915 17.9383 80.7726 18.6834 79.7129 19.21C78.6596 19.7367 77.4008 20 75.9364 20Z" fill="white"/>
<path d="M56.9022 19.9615C55.9581 19.9615 55.1232 19.8073 54.3974 19.499C53.6781 19.1843 53.1129 18.7091 52.7018 18.0732C52.2908 17.4374 52.0853 16.6281 52.0853 15.6455C52.0853 14.8362 52.2233 14.1458 52.4995 13.5742C52.7757 12.9961 53.161 12.5241 53.6556 12.158C54.1501 11.7919 54.725 11.5125 55.3801 11.3198C56.0416 11.1272 56.7545 11.0019 57.5188 10.9441C58.3473 10.8799 59.012 10.8028 59.513 10.7129C60.0204 10.6166 60.3865 10.4849 60.6113 10.3179C60.8361 10.1445 60.9485 9.9165 60.9485 9.63391V9.59537C60.9485 9.21002 60.8007 8.91458 60.5053 8.70905C60.2099 8.50353 59.8309 8.40077 59.3685 8.40077C58.8611 8.40077 58.4469 8.51316 58.1257 8.73796C58.0348 8.80101 57.9544 8.87398 57.8844 8.95686C57.5628 9.33763 57.1867 9.74952 56.6883 9.74952H53.7373C53.1569 9.74952 52.6887 9.25138 52.8498 8.69385C52.9948 8.19214 53.2184 7.71552 53.5207 7.26397C54.0345 6.49968 54.7828 5.88953 55.7654 5.43353C56.7481 4.9711 57.9748 4.73988 59.4456 4.73988C60.5053 4.73988 61.4558 4.86512 62.2972 5.11561C63.1386 5.35967 63.8547 5.70327 64.4456 6.14643C65.0364 6.58317 65.486 7.09698 65.7943 7.68786C66.109 8.27232 66.2664 8.90815 66.2664 9.59537V18.7302C66.2664 19.2825 65.8187 19.7302 65.2664 19.7302H62.2953C61.743 19.7302 61.2953 19.2825 61.2953 18.7302V17.7216C61.2953 17.6817 61.2629 17.6493 61.223 17.6493C61.1963 17.6493 61.1718 17.6641 61.1591 17.6875C60.8676 18.2223 60.5148 18.6559 60.1007 18.9884C59.6832 19.3288 59.2047 19.5761 58.6652 19.7302C58.1321 19.8844 57.5445 19.9615 56.9022 19.9615ZM58.6363 16.6089C59.0409 16.6089 59.4199 16.5254 59.7731 16.3584C60.1328 16.1914 60.425 15.9505 60.6498 15.6358C60.8746 15.3211 60.987 14.939 60.987 14.4894V13.7379C60.987 13.5081 60.7531 13.35 60.5342 13.42C60.3801 13.4714 60.2131 13.5196 60.0332 13.5645C59.8598 13.6095 59.6736 13.6512 59.4745 13.6898C59.2818 13.7283 59.0795 13.7636 58.8675 13.7958C58.4565 13.86 58.1193 13.966 57.856 14.1137C57.5991 14.255 57.4064 14.4316 57.2779 14.6435C57.1559 14.8491 57.0949 15.0803 57.0949 15.3372C57.0949 15.7482 57.2394 16.0629 57.5284 16.2813C57.8174 16.4997 58.1867 16.6089 58.6363 16.6089Z" fill="white"/>
<path d="M42.7047 19.7302C42.1524 19.7302 41.7047 19.2825 41.7047 18.7302V5.93256C41.7047 5.38028 42.1524 4.93256 42.7047 4.93256H45.8685C46.4208 4.93256 46.8685 5.38028 46.8685 5.93256V7.65876C46.8685 7.70676 46.9074 7.74566 46.9554 7.74566C46.995 7.74566 47.0296 7.71874 47.0398 7.6805C47.3104 6.67337 47.7318 5.93401 48.3039 5.46243C48.8948 4.98073 49.5853 4.73988 50.3752 4.73988C50.6065 4.73988 50.8345 4.75915 51.0592 4.79769C51.4598 4.85332 51.724 5.21875 51.724 5.62315V8.48412C51.724 8.97237 51.2359 9.33403 50.751 9.27745C50.3656 9.2325 50.0348 9.21002 49.7587 9.21002C49.2384 9.21002 48.7696 9.32884 48.3521 9.56647C47.9411 9.79769 47.6167 10.1252 47.3791 10.5491C47.1415 10.9666 47.0226 11.4579 47.0226 12.0231V18.7302C47.0226 19.2825 46.5749 19.7302 46.0226 19.7302H42.7047Z" fill="white"/>
<path d="M25 4.31599C24.4477 4.31599 24 3.86828 24 3.31599V1C24 0.447715 24.4477 0 25 0H40.1484C40.7006 0 41.1484 0.447715 41.1484 1V3.31599C41.1484 3.86828 40.7006 4.31599 40.1484 4.31599H36.2139C35.6616 4.31599 35.2139 4.76371 35.2139 5.31599V18.7302C35.2139 19.2825 34.7662 19.7302 34.2139 19.7302H30.9345C30.3822 19.7302 29.9345 19.2825 29.9345 18.7302V5.31599C29.9345 4.76371 29.4868 4.31599 28.9345 4.31599H25Z" fill="white"/>
</svg>
