<svg width="106" height="23" viewBox="0 0 106 23" fill="none" xmlns="http://www.w3.org/2000/svg">
<path d="M25.221 6.435C25.067 6.193 24.924 5.863 24.792 5.445C24.66 5.027 24.594 4.587 24.594 4.125C24.594 3.267 24.781 2.651 25.155 2.277C25.551 1.903 26.057 1.716 26.673 1.716H41.061C41.215 1.958 41.358 2.288 41.49 2.706C41.622 3.124 41.688 3.564 41.688 4.026C41.688 4.884 41.49 5.5 41.094 5.874C40.72 6.248 40.225 6.435 39.609 6.435H35.946V21.681C35.704 21.747 35.319 21.813 34.791 21.879C34.285 21.945 33.779 21.978 33.273 21.978C32.767 21.978 32.316 21.934 31.92 21.846C31.546 21.78 31.227 21.648 30.963 21.45C30.699 21.252 30.501 20.977 30.369 20.625C30.237 20.273 30.171 19.811 30.171 19.239V6.435H25.221Z" fill="white"/>
<path d="M48.3416 21.78C48.1216 21.846 47.7696 21.912 47.2856 21.978C46.8236 22.044 46.3396 22.077 45.8336 22.077C45.3496 22.077 44.9096 22.044 44.5136 21.978C44.1396 21.912 43.8206 21.78 43.5566 21.582C43.2926 21.384 43.0836 21.12 42.9296 20.79C42.7976 20.438 42.7316 19.987 42.7316 19.437V9.537C42.7316 9.031 42.8196 8.602 42.9956 8.25C43.1936 7.876 43.4686 7.546 43.8206 7.26C44.1726 6.974 44.6016 6.721 45.1076 6.501C45.6356 6.259 46.1966 6.05 46.7906 5.874C47.3846 5.698 48.0006 5.566 48.6386 5.478C49.2766 5.368 49.9146 5.313 50.5526 5.313C51.6086 5.313 52.4446 5.522 53.0606 5.94C53.6766 6.336 53.9846 6.996 53.9846 7.92C53.9846 8.228 53.9406 8.536 53.8526 8.844C53.7646 9.13 53.6546 9.394 53.5226 9.636C53.0606 9.636 52.5876 9.658 52.1036 9.702C51.6196 9.746 51.1466 9.812 50.6846 9.9C50.2226 9.988 49.7826 10.087 49.3646 10.197C48.9686 10.285 48.6276 10.395 48.3416 10.527V21.78Z" fill="white"/>
<path d="M62.6796 18.249C63.0536 18.249 63.4606 18.216 63.9006 18.15C64.3626 18.062 64.7036 17.952 64.9236 17.82V15.18L62.5476 15.378C61.9316 15.422 61.4256 15.554 61.0296 15.774C60.6336 15.994 60.4356 16.324 60.4356 16.764C60.4356 17.204 60.6006 17.567 60.9306 17.853C61.2826 18.117 61.8656 18.249 62.6796 18.249ZM62.4156 5.28C63.6036 5.28 64.6816 5.401 65.6496 5.643C66.6396 5.885 67.4756 6.259 68.1576 6.765C68.8616 7.249 69.4006 7.876 69.7746 8.646C70.1486 9.394 70.3356 10.285 70.3356 11.319V18.711C70.3356 19.283 70.1706 19.756 69.8406 20.13C69.5326 20.482 69.1586 20.79 68.7186 21.054C67.2886 21.912 65.2756 22.341 62.6796 22.341C61.5136 22.341 60.4576 22.231 59.5116 22.011C58.5876 21.791 57.7846 21.461 57.1026 21.021C56.4426 20.581 55.9256 20.02 55.5516 19.338C55.1996 18.656 55.0236 17.864 55.0236 16.962C55.0236 15.444 55.4746 14.278 56.3766 13.464C57.2786 12.65 58.6756 12.144 60.5676 11.946L64.8906 11.484V11.253C64.8906 10.615 64.6046 10.164 64.0326 9.9C63.4826 9.614 62.6796 9.471 61.6236 9.471C60.7876 9.471 59.9736 9.559 59.1816 9.735C58.3896 9.911 57.6746 10.131 57.0366 10.395C56.7506 10.197 56.5086 9.9 56.3106 9.504C56.1126 9.086 56.0136 8.657 56.0136 8.217C56.0136 7.645 56.1456 7.194 56.4096 6.864C56.6956 6.512 57.1246 6.215 57.6966 5.973C58.3346 5.731 59.0826 5.555 59.9406 5.445C60.8206 5.335 61.6456 5.28 62.4156 5.28Z" fill="white"/>
<path d="M82.8078 9.702C82.2578 9.702 81.7298 9.79 81.2238 9.966C80.7398 10.142 80.3108 10.406 79.9368 10.758C79.5848 11.088 79.2988 11.506 79.0788 12.012C78.8588 12.518 78.7488 13.112 78.7488 13.794C78.7488 15.158 79.1338 16.181 79.9038 16.863C80.6958 17.545 81.6528 17.886 82.7748 17.886C83.4348 17.886 84.0068 17.809 84.4908 17.655C84.9748 17.501 85.4038 17.336 85.7778 17.16C86.2178 17.468 86.5478 17.809 86.7678 18.183C86.9878 18.535 87.0978 18.964 87.0978 19.47C87.0978 20.372 86.6688 21.076 85.8108 21.582C84.9528 22.066 83.7648 22.308 82.2468 22.308C80.8608 22.308 79.6068 22.11 78.4848 21.714C77.3628 21.296 76.3948 20.724 75.5808 19.998C74.7888 19.25 74.1728 18.359 73.7328 17.325C73.2928 16.291 73.0728 15.147 73.0728 13.893C73.0728 12.441 73.3038 11.176 73.7658 10.098C74.2498 8.998 74.8988 8.096 75.7128 7.392C76.5268 6.688 77.4618 6.16 78.5178 5.808C79.5958 5.456 80.7288 5.28 81.9168 5.28C83.5008 5.28 84.7218 5.566 85.5798 6.138C86.4378 6.71 86.8668 7.447 86.8668 8.349C86.8668 8.767 86.7678 9.163 86.5698 9.537C86.3718 9.889 86.1408 10.197 85.8768 10.461C85.5028 10.285 85.0518 10.12 84.5238 9.966C83.9958 9.79 83.4238 9.702 82.8078 9.702Z" fill="white"/>
<path d="M105.586 18.909C105.476 19.943 105.168 20.735 104.662 21.285C104.178 21.835 103.463 22.11 102.517 22.11C101.813 22.11 101.186 21.945 100.636 21.615C100.086 21.263 99.4923 20.68 98.8543 19.866L95.5873 15.774V21.78C95.3453 21.824 94.9823 21.879 94.4983 21.945C94.0363 22.033 93.5633 22.077 93.0793 22.077C92.5953 22.077 92.1553 22.044 91.7593 21.978C91.3853 21.912 91.0663 21.78 90.8023 21.582C90.5383 21.384 90.3293 21.12 90.1753 20.79C90.0433 20.438 89.9773 19.987 89.9773 19.437V0.33C90.2193 0.263999 90.5713 0.197999 91.0333 0.132C91.5173 0.0440001 92.0013 0 92.4853 0C92.9693 0 93.3983 0.0329996 93.7723 0.0989987C94.1683 0.164999 94.4983 0.296999 94.7623 0.495C95.0263 0.693 95.2243 0.967999 95.3563 1.32C95.5103 1.65 95.5873 2.09 95.5873 2.64V11.352L101.263 5.544C102.407 5.544 103.32 5.797 104.002 6.303C104.706 6.809 105.058 7.447 105.058 8.217C105.058 8.547 105.003 8.855 104.893 9.141C104.783 9.405 104.607 9.68 104.365 9.966C104.145 10.252 103.848 10.56 103.474 10.89C103.122 11.198 102.704 11.561 102.22 11.979L100.306 13.629L105.586 18.909Z" fill="white"/>
<path d="M9 21.0794C8.53846 21.2596 7.90909 21.4269 7.11189 21.5813C6.31468 21.7358 5.47552 21.813 4.59441 21.813C2.95804 21.813 1.78322 21.5942 1.06993 21.1566C0.356644 20.6933 0 20.1013 0 19.3806V2.54659C0.461538 2.36641 1.09091 2.1991 1.88811 2.04466C2.68532 1.89022 3.52448 1.813 4.40559 1.813C6.04196 1.813 7.21678 2.04466 7.93007 2.50798C8.64336 2.94556 9 3.52471 9 4.24543V21.0794Z" fill="white"/>
<path d="M20 10.4829C19.5385 10.564 18.9091 10.6393 18.1119 10.7088C17.3147 10.7783 16.4755 10.813 15.5944 10.813C13.958 10.813 12.7832 10.7145 12.0699 10.5176C11.3566 10.3091 11 10.0427 11 9.71841V2.14312C11.4615 2.06204 12.0909 1.98675 12.8881 1.91725C13.6853 1.84775 14.5245 1.813 15.4056 1.813C17.042 1.813 18.2168 1.91725 18.9301 2.12575C19.6434 2.32266 20 2.58327 20 2.9076V10.4829Z" fill="white"/>
<path d="M20 21.4829C19.5385 21.564 18.9091 21.6393 18.1119 21.7088C17.3147 21.7783 16.4755 21.813 15.5944 21.813C13.958 21.813 12.7832 21.7145 12.0699 21.5176C11.3566 21.3091 11 21.0427 11 20.7184V13.1431C11.4615 13.062 12.0909 12.9867 12.8881 12.9173C13.6853 12.8478 14.5245 12.813 15.4056 12.813C17.042 12.813 18.2168 12.9173 18.9301 13.1257C19.6434 13.3227 20 13.5833 20 13.9076V21.4829Z" fill="white"/>
</svg>
