<svg width="106" height="23" viewBox="0 0 106 23" fill="none" xmlns="http://www.w3.org/2000/svg">
<path d="M25.221 6.622C25.067 6.38 24.924 6.05 24.792 5.632C24.66 5.214 24.594 4.774 24.594 4.312C24.594 3.454 24.781 2.838 25.155 2.464C25.551 2.09 26.057 1.903 26.673 1.903H41.061C41.215 2.145 41.358 2.475 41.49 2.893C41.622 3.311 41.688 3.751 41.688 4.213C41.688 5.071 41.49 5.687 41.094 6.061C40.72 6.435 40.225 6.622 39.609 6.622H35.946V21.868C35.704 21.934 35.319 22 34.791 22.066C34.285 22.132 33.779 22.165 33.273 22.165C32.767 22.165 32.316 22.121 31.92 22.033C31.546 21.967 31.227 21.835 30.963 21.637C30.699 21.439 30.501 21.164 30.369 20.812C30.237 20.46 30.171 19.998 30.171 19.426V6.622H25.221Z" fill="url(#paint0_linear_16_3)"/>
<path d="M48.3416 21.967C48.1216 22.033 47.7696 22.099 47.2856 22.165C46.8236 22.231 46.3396 22.264 45.8336 22.264C45.3496 22.264 44.9096 22.231 44.5136 22.165C44.1396 22.099 43.8206 21.967 43.5566 21.769C43.2926 21.571 43.0836 21.307 42.9296 20.977C42.7976 20.625 42.7316 20.174 42.7316 19.624V9.724C42.7316 9.218 42.8196 8.789 42.9956 8.437C43.1936 8.063 43.4686 7.733 43.8206 7.447C44.1726 7.161 44.6016 6.908 45.1076 6.688C45.6356 6.446 46.1966 6.237 46.7906 6.061C47.3846 5.885 48.0006 5.753 48.6386 5.665C49.2766 5.555 49.9146 5.5 50.5526 5.5C51.6086 5.5 52.4446 5.709 53.0606 6.127C53.6766 6.523 53.9846 7.183 53.9846 8.107C53.9846 8.415 53.9406 8.723 53.8526 9.031C53.7646 9.317 53.6546 9.581 53.5226 9.823C53.0606 9.823 52.5876 9.845 52.1036 9.889C51.6196 9.933 51.1466 9.999 50.6846 10.087C50.2226 10.175 49.7826 10.274 49.3646 10.384C48.9686 10.472 48.6276 10.582 48.3416 10.714V21.967Z" fill="url(#paint1_linear_16_3)"/>
<path d="M62.6796 18.436C63.0536 18.436 63.4606 18.403 63.9006 18.337C64.3626 18.249 64.7036 18.139 64.9236 18.007V15.367L62.5476 15.565C61.9316 15.609 61.4256 15.741 61.0296 15.961C60.6336 16.181 60.4356 16.511 60.4356 16.951C60.4356 17.391 60.6006 17.754 60.9306 18.04C61.2826 18.304 61.8656 18.436 62.6796 18.436ZM62.4156 5.467C63.6036 5.467 64.6816 5.588 65.6496 5.83C66.6396 6.072 67.4756 6.446 68.1576 6.952C68.8616 7.436 69.4006 8.063 69.7746 8.833C70.1486 9.581 70.3356 10.472 70.3356 11.506V18.898C70.3356 19.47 70.1706 19.943 69.8406 20.317C69.5326 20.669 69.1586 20.977 68.7186 21.241C67.2886 22.099 65.2756 22.528 62.6796 22.528C61.5136 22.528 60.4576 22.418 59.5116 22.198C58.5876 21.978 57.7846 21.648 57.1026 21.208C56.4426 20.768 55.9256 20.207 55.5516 19.525C55.1996 18.843 55.0236 18.051 55.0236 17.149C55.0236 15.631 55.4746 14.465 56.3766 13.651C57.2786 12.837 58.6756 12.331 60.5676 12.133L64.8906 11.671V11.44C64.8906 10.802 64.6046 10.351 64.0326 10.087C63.4826 9.801 62.6796 9.658 61.6236 9.658C60.7876 9.658 59.9736 9.746 59.1816 9.922C58.3896 10.098 57.6746 10.318 57.0366 10.582C56.7506 10.384 56.5086 10.087 56.3106 9.691C56.1126 9.273 56.0136 8.844 56.0136 8.404C56.0136 7.832 56.1456 7.381 56.4096 7.051C56.6956 6.699 57.1246 6.402 57.6966 6.16C58.3346 5.918 59.0826 5.742 59.9406 5.632C60.8206 5.522 61.6456 5.467 62.4156 5.467Z" fill="url(#paint2_linear_16_3)"/>
<path d="M82.8078 9.889C82.2578 9.889 81.7298 9.977 81.2238 10.153C80.7398 10.329 80.3108 10.593 79.9368 10.945C79.5848 11.275 79.2988 11.693 79.0788 12.199C78.8588 12.705 78.7488 13.299 78.7488 13.981C78.7488 15.345 79.1338 16.368 79.9038 17.05C80.6958 17.732 81.6528 18.073 82.7748 18.073C83.4348 18.073 84.0068 17.996 84.4908 17.842C84.9748 17.688 85.4038 17.523 85.7778 17.347C86.2178 17.655 86.5478 17.996 86.7678 18.37C86.9878 18.722 87.0978 19.151 87.0978 19.657C87.0978 20.559 86.6688 21.263 85.8108 21.769C84.9528 22.253 83.7648 22.495 82.2468 22.495C80.8608 22.495 79.6068 22.297 78.4848 21.901C77.3628 21.483 76.3948 20.911 75.5808 20.185C74.7888 19.437 74.1728 18.546 73.7328 17.512C73.2928 16.478 73.0728 15.334 73.0728 14.08C73.0728 12.628 73.3038 11.363 73.7658 10.285C74.2498 9.185 74.8988 8.283 75.7128 7.579C76.5268 6.875 77.4618 6.347 78.5178 5.995C79.5958 5.643 80.7288 5.467 81.9168 5.467C83.5008 5.467 84.7218 5.753 85.5798 6.325C86.4378 6.897 86.8668 7.634 86.8668 8.536C86.8668 8.954 86.7678 9.35 86.5698 9.724C86.3718 10.076 86.1408 10.384 85.8768 10.648C85.5028 10.472 85.0518 10.307 84.5238 10.153C83.9958 9.977 83.4238 9.889 82.8078 9.889Z" fill="url(#paint3_linear_16_3)"/>
<path d="M105.586 19.096C105.476 20.13 105.168 20.922 104.662 21.472C104.178 22.022 103.463 22.297 102.517 22.297C101.813 22.297 101.186 22.132 100.636 21.802C100.086 21.45 99.4923 20.867 98.8543 20.053L95.5873 15.961V21.967C95.3453 22.011 94.9823 22.066 94.4983 22.132C94.0363 22.22 93.5633 22.264 93.0793 22.264C92.5953 22.264 92.1553 22.231 91.7593 22.165C91.3853 22.099 91.0663 21.967 90.8023 21.769C90.5383 21.571 90.3293 21.307 90.1753 20.977C90.0433 20.625 89.9773 20.174 89.9773 19.624V0.516996C90.2193 0.450996 90.5713 0.384996 91.0333 0.318997C91.5173 0.230997 92.0013 0.186996 92.4853 0.186996C92.9693 0.186996 93.3983 0.219996 93.7723 0.285995C94.1683 0.351996 94.4983 0.483996 94.7623 0.681996C95.0263 0.879996 95.2243 1.155 95.3563 1.507C95.5103 1.837 95.5873 2.277 95.5873 2.827V11.539L101.263 5.731C102.407 5.731 103.32 5.984 104.002 6.49C104.706 6.996 105.058 7.634 105.058 8.404C105.058 8.734 105.003 9.042 104.893 9.328C104.783 9.592 104.607 9.867 104.365 10.153C104.145 10.439 103.848 10.747 103.474 11.077C103.122 11.385 102.704 11.748 102.22 12.166L100.306 13.816L105.586 19.096Z" fill="url(#paint4_linear_16_3)"/>
<path d="M9 21.2664C8.53846 21.4466 7.90909 21.6139 7.11189 21.7683C6.31468 21.9228 5.47552 22 4.59441 22C2.95804 22 1.78322 21.7812 1.06993 21.3436C0.356644 20.8803 0 20.2883 0 19.5676V2.73359C0.461538 2.55341 1.09091 2.3861 1.88811 2.23166C2.68532 2.07722 3.52448 2 4.40559 2C6.04196 2 7.21678 2.23166 7.93007 2.69498C8.64336 3.13256 9 3.71171 9 4.43243V21.2664Z" fill="url(#paint5_linear_16_3)"/>
<path d="M20 10.6699C19.5385 10.751 18.9091 10.8263 18.1119 10.8958C17.3147 10.9653 16.4755 11 15.5944 11C13.958 11 12.7832 10.9015 12.0699 10.7046C11.3566 10.4961 11 10.2297 11 9.90541V2.33012C11.4615 2.24903 12.0909 2.17374 12.8881 2.10425C13.6853 2.03475 14.5245 2 15.4056 2C17.042 2 18.2168 2.10425 18.9301 2.31274C19.6434 2.50965 20 2.77027 20 3.09459V10.6699Z" fill="url(#paint6_linear_16_3)"/>
<path d="M20 21.6699C19.5385 21.751 18.9091 21.8263 18.1119 21.8958C17.3147 21.9653 16.4755 22 15.5944 22C13.958 22 12.7832 21.9015 12.0699 21.7046C11.3566 21.4961 11 21.2297 11 20.9054V13.3301C11.4615 13.249 12.0909 13.1737 12.8881 13.1042C13.6853 13.0347 14.5245 13 15.4056 13C17.042 13 18.2168 13.1042 18.9301 13.3127C19.6434 13.5097 20 13.7703 20 14.0946V21.6699Z" fill="url(#paint7_linear_16_3)"/>
<defs>
<linearGradient id="paint0_linear_16_3" x1="53.3275" y1="-13" x2="53.3275" y2="39" gradientUnits="userSpaceOnUse">
<stop stop-color="#371A99"/>
<stop offset="1" stop-color="#A78BFA"/>
</linearGradient>
<linearGradient id="paint1_linear_16_3" x1="53.3275" y1="-13" x2="53.3275" y2="39" gradientUnits="userSpaceOnUse">
<stop stop-color="#371A99"/>
<stop offset="1" stop-color="#A78BFA"/>
</linearGradient>
<linearGradient id="paint2_linear_16_3" x1="53.3275" y1="-13" x2="53.3275" y2="39" gradientUnits="userSpaceOnUse">
<stop stop-color="#371A99"/>
<stop offset="1" stop-color="#A78BFA"/>
</linearGradient>
<linearGradient id="paint3_linear_16_3" x1="53.3275" y1="-13" x2="53.3275" y2="39" gradientUnits="userSpaceOnUse">
<stop stop-color="#371A99"/>
<stop offset="1" stop-color="#A78BFA"/>
</linearGradient>
<linearGradient id="paint4_linear_16_3" x1="53.3275" y1="-13" x2="53.3275" y2="39" gradientUnits="userSpaceOnUse">
<stop stop-color="#371A99"/>
<stop offset="1" stop-color="#A78BFA"/>
</linearGradient>
<linearGradient id="paint5_linear_16_3" x1="11" y1="17.5" x2="20" y2="17.5" gradientUnits="userSpaceOnUse">
<stop stop-color="#371A99"/>
<stop offset="1" stop-color="#A78BFA"/>
</linearGradient>
<linearGradient id="paint6_linear_16_3" x1="11" y1="17.5" x2="20" y2="17.5" gradientUnits="userSpaceOnUse">
<stop stop-color="#371A99"/>
<stop offset="1" stop-color="#A78BFA"/>
</linearGradient>
<linearGradient id="paint7_linear_16_3" x1="11" y1="17.5" x2="20" y2="17.5" gradientUnits="userSpaceOnUse">
<stop stop-color="#371A99"/>
<stop offset="1" stop-color="#A78BFA"/>
</linearGradient>
</defs>
</svg>
