<svg width="20" height="21" viewBox="0 0 20 21" fill="none" xmlns="http://www.w3.org/2000/svg">
<path d="M9 19.8924C8.53846 20.0726 7.90909 20.2399 7.11189 20.3943C6.31468 20.5488 5.47552 20.626 4.59441 20.626C2.95804 20.626 1.78322 20.4072 1.06993 19.9696C0.356644 19.5063 0 18.9143 0 18.1936V1.3596C0.461538 1.17942 1.09091 1.01211 1.88811 0.857667C2.68532 0.703227 3.52448 0.626007 4.40559 0.626007C6.04196 0.626007 7.21678 0.857668 7.93007 1.32099C8.64336 1.75857 9 2.33772 9 3.05844V19.8924Z" fill="white"/>
<path d="M20 9.29589C19.5385 9.37697 18.9091 9.45226 18.1119 9.52176C17.3147 9.59126 16.4755 9.62601 15.5944 9.62601C13.958 9.62601 12.7832 9.52755 12.0699 9.33064C11.3566 9.12215 11 8.85574 11 8.53141V0.956124C11.4615 0.875042 12.0909 0.799753 12.8881 0.730255C13.6853 0.660757 14.5245 0.626008 15.4056 0.626008C17.042 0.626008 18.2168 0.730255 18.9301 0.938749C19.6434 1.13566 20 1.39628 20 1.7206V9.29589Z" fill="white"/>
<path d="M20 20.2959C19.5385 20.377 18.9091 20.4523 18.1119 20.5218C17.3147 20.5913 16.4755 20.626 15.5944 20.626C13.958 20.626 12.7832 20.5276 12.0699 20.3306C11.3566 20.1221 11 19.8557 11 19.5314V11.9561C11.4615 11.875 12.0909 11.7998 12.8881 11.7303C13.6853 11.6608 14.5245 11.626 15.4056 11.626C17.042 11.626 18.2168 11.7303 18.9301 11.9388C19.6434 12.1357 20 12.3963 20 12.7206V20.2959Z" fill="white"/>
</svg>
