<svg width="20" height="21" viewBox="0 0 20 21" fill="none" xmlns="http://www.w3.org/2000/svg">
<path d="M9 20.0794C8.53846 20.2596 7.90909 20.4269 7.11189 20.5813C6.31468 20.7358 5.47552 20.813 4.59441 20.813C2.95804 20.813 1.78322 20.5942 1.06993 20.1566C0.356644 19.6933 0 19.1013 0 18.3806V1.54659C0.461538 1.36641 1.09091 1.1991 1.88811 1.04466C2.68532 0.890224 3.52448 0.813004 4.40559 0.813004C6.04196 0.813004 7.21678 1.04466 7.93007 1.50798C8.64336 1.94556 9 2.52471 9 3.24544V20.0794Z" fill="url(#paint0_linear_16_4)"/>
<path d="M20 9.48289C19.5385 9.56397 18.9091 9.63926 18.1119 9.70876C17.3147 9.77826 16.4755 9.813 15.5944 9.813C13.958 9.813 12.7832 9.71455 12.0699 9.51764C11.3566 9.30914 11 9.04273 11 8.71841V1.14312C11.4615 1.06204 12.0909 0.986749 12.8881 0.917251C13.6853 0.847753 14.5245 0.813004 15.4056 0.813004C17.042 0.813004 18.2168 0.917252 18.9301 1.12575C19.6434 1.32266 20 1.58327 20 1.9076V9.48289Z" fill="url(#paint1_linear_16_4)"/>
<path d="M20 20.4829C19.5385 20.564 18.9091 20.6393 18.1119 20.7088C17.3147 20.7783 16.4755 20.813 15.5944 20.813C13.958 20.813 12.7832 20.7145 12.0699 20.5176C11.3566 20.3091 11 20.0427 11 19.7184V12.1431C11.4615 12.062 12.0909 11.9867 12.8881 11.9173C13.6853 11.8478 14.5245 11.813 15.4056 11.813C17.042 11.813 18.2168 11.9173 18.9301 12.1257C19.6434 12.3227 20 12.5833 20 12.9076V20.4829Z" fill="url(#paint2_linear_16_4)"/>
<defs>
<linearGradient id="paint0_linear_16_4" x1="11" y1="16.313" x2="20" y2="16.313" gradientUnits="userSpaceOnUse">
<stop stop-color="#371A99"/>
<stop offset="1" stop-color="#A78BFA"/>
</linearGradient>
<linearGradient id="paint1_linear_16_4" x1="11" y1="16.313" x2="20" y2="16.313" gradientUnits="userSpaceOnUse">
<stop stop-color="#371A99"/>
<stop offset="1" stop-color="#A78BFA"/>
</linearGradient>
<linearGradient id="paint2_linear_16_4" x1="11" y1="16.313" x2="20" y2="16.313" gradientUnits="userSpaceOnUse">
<stop stop-color="#371A99"/>
<stop offset="1" stop-color="#A78BFA"/>
</linearGradient>
</defs>
</svg>
